<?xml version="1.0" encoding="UTF-8"?>
<svg id="Vrstva_1" data-name="Vrstva 1" xmlns="http://www.w3.org/2000/svg" viewBox="0 0 120.1 125.89">
  <defs>
    <style>
      .cls-1 {
        stroke-width: 0px;
      }

      .cls-1, .cls-2 {
        fill: #efe6ea;
      }

      .cls-2 {
        stroke: #f0e6ea;
        stroke-miterlimit: 10;
        stroke-width: 2px;
      }
    </style>
  </defs>
  <path class="cls-1" d="M.05,125.8h40.83s.05-.02.05-.05l-.14-104.1c0-.06-.08-.07-.1-.02L0,125.73s.01.07.05.07Z"/>
  <path class="cls-1" d="M111.54,77.19l-8.52-8.37c-1.26-1.24-1.28-3.22-.11-4.55,18.54-21,3.87-55.13-25.12-55.13h-32.13s-.06.03-.06.06v116.69h46.01c25.44,0,38.07-30.86,19.93-48.7ZM87.27,104.66c-2.68,2.68-6.39,4.34-10.48,4.34h-9.99c-2.66,0-4.82-2.16-4.82-4.82v-24.76s.03-.06.06-.06h14.32c7.87,0,14.69,5.95,15.22,13.79.3,4.49-1.41,8.6-4.31,11.5ZM87.27,52.51c-2.68,2.68-6.39,4.34-10.48,4.34h-14.75s-.06-.03-.06-.06v-24.76c0-2.66,2.16-4.82,4.82-4.82h9.56c7.86,0,14.69,5.95,15.22,13.79.3,4.49-1.41,8.6-4.31,11.5Z"/>
  <path class="cls-2" d="M106.07,19.59v-1.52l1.94-1.88c4.67-4.44,6.78-6.81,6.81-9.56,0-1.86-.9-3.57-3.63-3.57-1.66,0-3.04.84-3.88,1.55l-.79-1.74c1.27-1.07,3.07-1.86,5.18-1.86,3.94,0,5.6,2.7,5.6,5.32,0,3.38-2.45,6.1-6.3,9.82l-1.46,1.35v.06h8.21v2.05h-11.67Z"/>
</svg>